<svg width="40" height="40" viewBox="0 0 40 40" fill="none" xmlns="http://www.w3.org/2000/svg">
<ellipse rx="20" ry="20" transform="matrix(0 -1 -1 0 20 20)" fill="url(#paint0_radial_16782_4361)"/>
<path d="M9.44364 19.3185C15.0808 16.9194 18.8397 15.3378 20.7206 14.5736C26.0906 12.3918 27.2065 12.0128 27.9338 12.0001C28.0938 11.9975 28.4514 12.0362 28.6831 12.2199C28.8787 12.3749 28.9326 12.5844 28.9583 12.7314C28.9841 12.8784 29.0162 13.2133 28.9907 13.475C28.6997 16.4617 27.4405 23.7098 26.7999 27.055C26.5288 28.4705 25.9951 28.9451 25.4784 28.9916C24.3554 29.0925 23.5027 28.2667 22.4151 27.5702C20.7132 26.4805 19.7517 25.8021 18.0997 24.7387C16.1906 23.5097 17.4282 22.8343 18.5162 21.7304C18.801 21.4415 23.7486 17.0456 23.8444 16.6468C23.8564 16.5969 23.8675 16.411 23.7544 16.3128C23.6414 16.2147 23.4745 16.2482 23.3541 16.2749C23.1834 16.3128 20.4646 18.0681 15.1976 21.5411C14.4259 22.0587 13.7269 22.3109 13.1006 22.2977C12.4102 22.2831 11.082 21.9164 10.0947 21.6029C8.88374 21.2184 7.92128 21.0151 8.00509 20.362C8.04874 20.0219 8.52826 19.674 9.44364 19.3185Z" fill="white"/>
<defs>
<radialGradient id="paint0_radial_16782_4361" cx="0" cy="0" r="1" gradientUnits="userSpaceOnUse" gradientTransform="translate(28.6352 29.3155) rotate(-127.803) scale(33.4206 33.8242)">
<stop stop-color="#4FD7A5"/>
<stop offset="1" stop-color="#26D3DF"/>
</radialGradient>
</defs>
</svg>
