<svg width="180" height="330" viewBox="0 0 180 330" fill="none" xmlns="http://www.w3.org/2000/svg">
<path opacity="0.25" d="M179.91 305.706C179.883 305.342 179.748 304.995 179.524 304.707C179.299 304.42 178.994 304.206 178.648 304.092C178.301 303.978 177.929 303.97 177.577 304.068C177.226 304.165 176.912 304.365 176.674 304.642C176.436 304.918 176.286 305.259 176.242 305.621C176.198 305.983 176.263 306.35 176.428 306.675C176.592 307.001 176.85 307.27 177.168 307.449C177.486 307.627 177.849 307.708 178.213 307.68C178.7 307.643 179.152 307.414 179.47 307.044C179.788 306.674 179.946 306.192 179.91 305.706Z" fill="#AFF1FF"/>
<path opacity="0.5" d="M47.6542 306.324C47.6156 305.843 47.4357 305.385 47.1372 305.007C46.8387 304.629 46.4349 304.347 45.9767 304.198C45.5185 304.048 45.0264 304.038 44.5622 304.167C44.098 304.297 43.6825 304.561 43.368 304.926C43.0535 305.291 42.8541 305.741 42.7948 306.219C42.7355 306.697 42.8191 307.182 43.0349 307.613C43.2507 308.044 43.5891 308.401 44.0076 308.64C44.4261 308.879 44.906 308.989 45.3868 308.956C46.0366 308.908 46.6405 308.603 47.0657 308.109C47.4909 307.616 47.7026 306.973 47.6542 306.324Z" fill="#AFF1FF"/>
<path opacity="0.85" d="M101.908 275.275C101.872 274.79 101.693 274.327 101.394 273.944C101.094 273.561 100.688 273.276 100.227 273.123C99.7649 272.971 99.2684 272.96 98.8001 273.09C98.3317 273.22 97.9124 273.485 97.5952 273.854C97.278 274.222 97.0772 274.676 97.0181 275.158C96.9591 275.641 97.0444 276.13 97.2634 276.564C97.4824 276.998 97.8251 277.357 98.2483 277.596C98.6714 277.835 99.1561 277.943 99.6408 277.907C100.291 277.859 100.894 277.554 101.32 277.06C101.745 276.567 101.956 275.924 101.908 275.275Z" fill="#AFF1FF"/>
<path opacity="0.25" d="M84.0183 282.426C83.994 282.062 83.8619 281.713 83.6388 281.423C83.4156 281.134 83.1115 280.918 82.7651 280.802C82.4187 280.686 82.0456 280.675 81.6931 280.771C81.3407 280.868 81.0249 281.067 80.7857 281.343C80.5466 281.619 80.395 281.96 80.3501 282.322C80.3052 282.685 80.3691 283.053 80.5337 283.379C80.6983 283.705 80.9561 283.975 81.2744 284.154C81.5927 284.334 81.9571 284.414 82.3214 284.386C82.8054 284.349 83.255 284.122 83.5727 283.755C83.8904 283.388 84.0505 282.911 84.0183 282.426Z" fill="#AFF1FF"/>
<path opacity="0.5" d="M124.283 11.7879C124.283 12.537 124.505 13.2694 124.922 13.8923C125.338 14.5152 125.929 15.0007 126.622 15.2874C127.314 15.5741 128.076 15.6491 128.811 15.503C129.546 15.3568 130.221 14.996 130.751 14.4663C131.28 13.9366 131.641 13.2616 131.787 12.5269C131.934 11.7921 131.859 11.0305 131.572 10.3383C131.285 9.64617 130.799 9.05459 130.176 8.63837C129.553 8.22215 128.821 8 128.072 8C127.067 8 126.103 8.39908 125.393 9.10944C124.682 9.81981 124.283 10.7833 124.283 11.7879Z" fill="#AFF1FF"/>
<path opacity="0.5" d="M155.338 47.3411C155.335 48.0916 155.555 48.8259 155.97 49.4511C156.385 50.0762 156.977 50.564 157.67 50.8525C158.363 51.141 159.126 51.2172 159.862 51.0715C160.598 50.9259 161.274 50.5648 161.805 50.0342C162.336 49.5035 162.697 48.8273 162.843 48.0911C162.989 47.355 162.912 46.5922 162.624 45.8994C162.335 45.2067 161.847 44.6153 161.222 44.2002C160.597 43.7851 159.862 43.565 159.112 43.5679C158.112 43.5718 157.154 43.9705 156.447 44.6773C155.74 45.3841 155.342 46.3416 155.338 47.3411Z" fill="#AFF1FF"/>
<path opacity="0.85" d="M68.2429 88.9493C68.2401 89.6991 68.4598 90.4328 68.8744 91.0577C69.2889 91.6825 69.8796 92.1703 70.5716 92.4592C71.2636 92.7482 72.0258 92.8253 72.7617 92.6808C73.4976 92.5363 74.1741 92.1767 74.7054 91.6475C75.2367 91.1184 75.5989 90.4434 75.7463 89.7083C75.8937 88.9731 75.8195 88.2107 75.5332 87.5177C75.2469 86.8247 74.7613 86.2323 74.138 85.8154C73.5146 85.3986 72.7816 85.176 72.0316 85.176C71.0294 85.176 70.0679 85.5731 69.3578 86.2803C68.6477 86.9875 68.2468 87.9472 68.2429 88.9493Z" fill="#AFF1FF"/>
<path opacity="0.25" d="M134.128 53.5861C132.561 53.5861 131.29 52.3158 131.29 50.7489C131.29 49.1819 132.561 47.9116 134.128 47.9116C135.695 47.9116 136.966 49.1819 136.966 50.7489C136.966 52.3158 135.695 53.5861 134.128 53.5861Z" fill="#AFF1FF"/>
<path opacity="0.25" d="M96.5928 80.072C96.593 80.6294 96.7575 81.1743 97.0656 81.6388C97.3737 82.1033 97.8118 82.4668 98.3253 82.6838C98.8387 82.9009 99.4048 82.962 99.9527 82.8595C100.501 82.7569 101.006 82.4953 101.406 82.1072C101.807 81.7191 102.084 81.2218 102.203 80.6774C102.322 80.1329 102.278 79.5654 102.077 79.0457C101.875 78.5259 101.525 78.0771 101.07 77.755C100.615 77.4329 100.076 77.252 99.5184 77.2348C99.1384 77.223 98.7599 77.2877 98.4054 77.425C98.0509 77.5623 97.7276 77.7695 97.4547 78.0341C97.1818 78.2987 96.9649 78.6155 96.8169 78.9656C96.6688 79.3157 96.5926 79.6919 96.5928 80.072Z" fill="#AFF1FF"/>
<path opacity="0.25" d="M93.0517 43.3779C91.4844 43.3779 90.2139 42.1076 90.2139 40.5406C90.2139 38.9736 91.4844 37.7034 93.0517 37.7034C94.619 37.7034 95.8895 38.9736 95.8895 40.5406C95.8895 42.1076 94.619 43.3779 93.0517 43.3779Z" fill="#AFF1FF"/>
<path opacity="0.5" d="M59.4522 190.296C59.4522 190.782 59.5963 191.257 59.8663 191.661C60.1364 192.065 60.5202 192.38 60.9692 192.566C61.4182 192.752 61.9124 192.8 62.3891 192.705C62.8657 192.611 63.3036 192.377 63.6473 192.033C63.9909 191.689 64.225 191.252 64.3198 190.775C64.4147 190.298 64.366 189.804 64.18 189.355C63.994 188.906 63.679 188.523 63.2749 188.253C62.8708 187.983 62.3957 187.839 61.9096 187.839C61.2579 187.839 60.6328 188.097 60.172 188.558C59.7111 189.019 59.4522 189.644 59.4522 190.296Z" fill="#AFF1FF"/>
<path opacity="0.85" d="M84.4658 177.557C84.4658 178.043 84.6099 178.518 84.88 178.922C85.15 179.326 85.5338 179.641 85.9828 179.827C86.4319 180.013 86.926 180.062 87.4027 179.967C87.8794 179.872 88.3173 179.638 88.661 179.295C89.0046 178.951 89.2387 178.513 89.3335 178.037C89.4283 177.56 89.3797 177.066 89.1937 176.617C89.0077 176.168 88.6927 175.784 88.2886 175.514C87.8844 175.244 87.4093 175.1 86.9233 175.1C86.2715 175.1 85.6464 175.359 85.1856 175.82C84.7247 176.281 84.4658 176.906 84.4658 177.557Z" fill="#AFF1FF"/>
<path opacity="0.2" d="M124.195 191.275C124.195 191.663 124.31 192.042 124.525 192.364C124.741 192.686 125.047 192.938 125.405 193.086C125.763 193.234 126.157 193.273 126.537 193.197C126.918 193.122 127.267 192.935 127.541 192.661C127.815 192.387 128.002 192.038 128.077 191.658C128.153 191.278 128.114 190.884 127.966 190.525C127.818 190.167 127.566 189.861 127.244 189.646C126.922 189.431 126.543 189.316 126.155 189.316C125.635 189.316 125.137 189.522 124.769 189.89C124.401 190.257 124.195 190.756 124.195 191.275Z" fill="#AFF1FF"/>
<path opacity="0.2" d="M69.75 164.322C69.75 164.611 69.8358 164.894 69.9965 165.134C70.1573 165.375 70.3857 165.562 70.653 165.673C70.9203 165.783 71.2144 165.812 71.4982 165.756C71.782 165.7 72.0426 165.56 72.2472 165.356C72.4518 165.151 72.5911 164.891 72.6476 164.607C72.704 164.323 72.675 164.029 72.5643 163.762C72.4536 163.495 72.2661 163.266 72.0255 163.106C71.7849 162.945 71.5022 162.859 71.2128 162.859C70.8249 162.859 70.4528 163.013 70.1784 163.287C69.9041 163.562 69.75 163.934 69.75 164.322Z" fill="#AFF1FF"/>
<path opacity="0.2" d="M78.088 176.577C78.088 176.867 78.1738 177.15 78.3345 177.39C78.4952 177.631 78.7237 177.818 78.9909 177.929C79.2582 178.039 79.5524 178.068 79.8361 178.012C80.1199 177.955 80.3805 177.816 80.5851 177.612C80.7897 177.407 80.929 177.147 80.9854 176.863C81.0419 176.579 81.0129 176.285 80.9022 176.018C80.7915 175.751 80.604 175.522 80.3634 175.361C80.1229 175.201 79.84 175.115 79.5507 175.115C79.1628 175.115 78.7907 175.269 78.5164 175.543C78.2421 175.818 78.088 176.19 78.088 176.577Z" fill="#AFF1FF"/>
<path opacity="0.2" d="M85.4463 159.92C85.4463 160.209 85.5321 160.492 85.6928 160.732C85.8536 160.973 86.082 161.16 86.3493 161.271C86.6166 161.381 86.9107 161.41 87.1945 161.354C87.4783 161.297 87.7389 161.158 87.9435 160.954C88.1481 160.749 88.2874 160.489 88.3438 160.205C88.4003 159.921 88.3713 159.627 88.2606 159.36C88.1499 159.093 87.9624 158.864 87.7218 158.703C87.4812 158.543 87.1984 158.457 86.9091 158.457C86.5211 158.457 86.1491 158.611 85.8748 158.885C85.6004 159.16 85.4463 159.532 85.4463 159.92Z" fill="#AFF1FF"/>
<path opacity="0.5" d="M158 237.827C158 238.313 158.144 238.788 158.414 239.192C158.684 239.596 159.068 239.911 159.517 240.097C159.966 240.283 160.46 240.331 160.937 240.237C161.414 240.142 161.851 239.908 162.195 239.564C162.539 239.221 162.773 238.783 162.868 238.306C162.963 237.83 162.914 237.336 162.728 236.887C162.542 236.438 162.227 236.054 161.823 235.784C161.419 235.514 160.943 235.37 160.457 235.37C159.806 235.37 159.181 235.629 158.72 236.09C158.259 236.55 158 237.175 158 237.827Z" fill="#AFF1FF"/>
<path opacity="0.2" d="M148.712 180.248C148.712 180.537 148.798 180.82 148.959 181.061C149.119 181.301 149.348 181.489 149.615 181.599C149.882 181.71 150.176 181.739 150.46 181.683C150.744 181.626 151.005 181.487 151.209 181.282C151.414 181.078 151.553 180.817 151.609 180.533C151.666 180.25 151.637 179.956 151.526 179.688C151.415 179.421 151.228 179.193 150.987 179.032C150.747 178.871 150.464 178.786 150.175 178.786C149.787 178.786 149.415 178.94 149.14 179.214C148.866 179.488 148.712 179.86 148.712 180.248Z" fill="#AFF1FF"/>
<path opacity="0.2" d="M156.317 206.222C156.317 206.512 156.403 206.794 156.564 207.035C156.725 207.275 156.953 207.463 157.22 207.573C157.488 207.684 157.782 207.713 158.066 207.657C158.349 207.6 158.61 207.461 158.815 207.256C159.019 207.052 159.158 206.791 159.215 206.508C159.271 206.224 159.242 205.93 159.132 205.663C159.021 205.395 158.833 205.167 158.593 205.006C158.352 204.846 158.07 204.76 157.78 204.76C157.392 204.76 157.02 204.914 156.746 205.188C156.471 205.462 156.317 205.834 156.317 206.222Z" fill="#AFF1FF"/>
<path opacity="0.2" d="M147 198.866C147 199.155 147.086 199.438 147.247 199.678C147.407 199.919 147.636 200.106 147.903 200.217C148.17 200.328 148.464 200.357 148.748 200.3C149.032 200.244 149.293 200.105 149.497 199.9C149.702 199.695 149.841 199.435 149.898 199.151C149.954 198.867 149.925 198.573 149.814 198.306C149.704 198.039 149.516 197.81 149.276 197.65C149.035 197.489 148.752 197.403 148.463 197.403C148.075 197.403 147.703 197.557 147.428 197.832C147.154 198.106 147 198.478 147 198.866Z" fill="#AFF1FF"/>
</svg>
