<svg width="142" height="142" viewBox="0 0 142 142" fill="none" xmlns="http://www.w3.org/2000/svg">
<path d="M106.5 48.8125C103.837 50.1438 101.175 50.5875 98.0688 51.0312C101.175 49.2562 103.394 46.5937 104.281 43.0437C101.619 44.8187 98.5125 45.7062 94.9625 46.5938C92.3 43.9312 88.3062 42.1562 84.3125 42.1562C74.9938 42.1562 67.8938 51.0312 70.1125 59.9062C58.1313 59.4625 47.4813 53.6938 39.9375 44.8188C35.9438 51.475 38.1625 59.9062 44.375 64.3438C42.1562 64.3438 39.9375 63.4563 37.7188 62.5688C37.7188 69.225 42.6 75.4375 49.2563 77.2125C47.0375 77.6562 44.8188 78.1 42.6 77.6562C44.375 83.425 49.7 87.8625 56.3562 87.8625C51.0312 91.8562 43.0438 94.075 35.5 93.1875C42.1562 97.1812 49.7 99.8438 57.6875 99.8438C84.7562 99.8438 99.8437 77.2125 98.9562 56.3562C102.062 54.5812 104.725 51.9187 106.5 48.8125Z" fill="#08103F"/>
</svg>
