<svg width="142" height="142" viewBox="0 0 142 142" fill="none" xmlns="http://www.w3.org/2000/svg">
<path d="M35.9434 69.7056C55.0023 61.4019 67.7112 55.9276 74.0701 53.2827C92.2261 45.731 95.9988 44.4192 98.4578 44.3754C98.9986 44.3664 100.208 44.5004 100.991 45.136C101.653 45.6727 101.835 46.3977 101.922 46.9065C102.009 47.4153 102.117 48.5745 102.031 49.4802C101.047 59.8179 96.7898 84.9049 94.624 96.4833C93.7075 101.383 91.903 103.025 90.156 103.186C86.3594 103.535 83.4765 100.677 79.7993 98.2665C74.0452 94.4947 70.7945 92.1467 65.2092 88.466C58.7544 84.2124 62.9388 81.8745 66.6173 78.0538C67.58 77.0539 84.3079 61.8386 84.6317 60.4583C84.6722 60.2857 84.7098 59.6422 84.3275 59.3025C83.9452 58.9627 83.381 59.0789 82.9739 59.1713C82.3968 59.3023 73.2046 65.378 55.3973 77.3984C52.7881 79.1901 50.4248 80.063 48.3073 80.0173C45.973 79.9669 41.4827 78.6974 38.1447 77.6124C34.0504 76.2815 30.7963 75.5778 31.0797 73.3176C31.2273 72.1403 32.8485 70.9363 35.9434 69.7056Z" fill="#08103F"/>
</svg>
