<svg width="36" height="36" viewBox="0 0 36 36" fill="none" xmlns="http://www.w3.org/2000/svg">
<g id="Icons/arrow-tail-dark">
<rect id="36x36 invisible layer" width="36" height="36" fill="#474747" fill-opacity="0.01"/>
<g id="Page 1">
<mask id="mask0" mask-type="alpha" maskUnits="userSpaceOnUse" x="8" y="11" width="21" height="14">
<path id="Clip 2" fill-rule="evenodd" clip-rule="evenodd" d="M8.00043 11H28.004V25H8.00043V11Z" fill="white"/>
</mask>
<g mask="url(#mask0)">
<path id="Fill 1" fill-rule="evenodd" clip-rule="evenodd" d="M27.7114 17.293L21.7114 11.293C21.3204 10.902 20.6884 10.902 20.2974 11.293C19.9064 11.684 19.9064 12.316 20.2974 12.707L24.5854 16.995H9.00043C8.44743 16.995 8.00043 17.442 8.00043 17.995C8.00043 18.547 8.44743 18.995 9.00043 18.995H24.6074L20.3364 23.295C19.9474 23.687 19.9494 24.32 20.3414 24.71C20.5364 24.903 20.7914 25 21.0454 25C21.3024 25 21.5604 24.901 21.7554 24.705L27.7134 18.705C28.1024 18.314 28.1014 17.683 27.7114 17.293Z" fill="#232D1E"/>
</g>
</g>
</g>
</svg>
