<svg width="243" height="339" viewBox="0 0 243 339" fill="none" xmlns="http://www.w3.org/2000/svg">
<path opacity="0.5" d="M137.654 286.324C137.615 285.843 137.436 285.385 137.137 285.007C136.839 284.629 136.435 284.347 135.977 284.198C135.518 284.048 135.026 284.038 134.562 284.167C134.098 284.297 133.682 284.561 133.368 284.926C133.053 285.291 132.854 285.741 132.795 286.219C132.735 286.697 132.819 287.182 133.035 287.613C133.251 288.044 133.589 288.401 134.007 288.64C134.426 288.879 134.906 288.989 135.387 288.956C136.036 288.908 136.64 288.603 137.066 288.109C137.491 287.616 137.702 286.973 137.654 286.324Z" fill="#AFF1FF"/>
<path opacity="0.85" d="M191.908 255.275C191.872 254.79 191.693 254.327 191.394 253.944C191.094 253.561 190.688 253.276 190.226 253.123C189.765 252.971 189.268 252.96 188.8 253.09C188.332 253.22 187.912 253.485 187.595 253.854C187.278 254.222 187.077 254.676 187.018 255.158C186.959 255.641 187.044 256.13 187.263 256.564C187.482 256.998 187.825 257.357 188.248 257.596C188.671 257.835 189.156 257.943 189.641 257.907C190.29 257.859 190.894 257.554 191.32 257.06C191.745 256.567 191.956 255.924 191.908 255.275Z" fill="#AFF1FF"/>
<path opacity="0.25" d="M195.911 336.706C195.884 336.342 195.749 335.995 195.525 335.707C195.3 335.42 194.995 335.206 194.649 335.092C194.302 334.978 193.93 334.97 193.578 335.068C193.227 335.165 192.913 335.365 192.675 335.642C192.437 335.918 192.287 336.259 192.243 336.621C192.199 336.983 192.264 337.35 192.429 337.675C192.593 338.001 192.851 338.27 193.169 338.449C193.487 338.627 193.85 338.708 194.214 338.68C194.699 338.639 195.149 338.409 195.466 338.04C195.784 337.671 195.943 337.191 195.911 336.706Z" fill="#AFF1FF"/>
<path opacity="0.25" d="M174.018 262.426C173.994 262.062 173.862 261.713 173.639 261.423C173.416 261.134 173.111 260.918 172.765 260.802C172.419 260.686 172.045 260.675 171.693 260.771C171.341 260.868 171.025 261.067 170.786 261.343C170.546 261.619 170.395 261.96 170.35 262.322C170.305 262.685 170.369 263.053 170.534 263.379C170.698 263.705 170.956 263.975 171.274 264.154C171.593 264.334 171.957 264.414 172.321 264.386C172.805 264.349 173.255 264.122 173.573 263.755C173.89 263.388 174.05 262.911 174.018 262.426Z" fill="#AFF1FF"/>
<path opacity="0.85" d="M158.243 68.9493C158.24 69.6991 158.46 70.4328 158.874 71.0577C159.289 71.6825 159.879 72.1703 160.571 72.4592C161.264 72.7482 162.026 72.8253 162.762 72.6808C163.497 72.5363 164.174 72.1767 164.705 71.6475C165.237 71.1184 165.599 70.4434 165.746 69.7083C165.894 68.9731 165.819 68.2107 165.533 67.5177C165.247 66.8247 164.761 66.2323 164.138 65.8154C163.515 65.3986 162.781 65.176 162.032 65.176C161.029 65.176 160.068 65.5731 159.358 66.2803C158.648 66.9875 158.247 67.9472 158.243 68.9493Z" fill="#AFF1FF"/>
<path opacity="0.25" d="M224.128 33.5861C222.561 33.5861 221.29 32.3158 221.29 30.7489C221.29 29.1819 222.561 27.9116 224.128 27.9116C225.695 27.9116 226.966 29.1819 226.966 30.7489C226.966 32.3158 225.695 33.5861 224.128 33.5861Z" fill="#AFF1FF"/>
<path opacity="0.25" d="M186.593 60.072C186.593 60.6294 186.757 61.1743 187.065 61.6388C187.374 62.1033 187.812 62.4668 188.325 62.6838C188.839 62.9009 189.405 62.962 189.953 62.8595C190.501 62.7569 191.006 62.4953 191.406 62.1072C191.806 61.7191 192.083 61.2218 192.203 60.6774C192.322 60.1329 192.278 59.5654 192.077 59.0457C191.875 58.5259 191.525 58.0771 191.07 57.755C190.615 57.4329 190.075 57.252 189.518 57.2348C189.138 57.223 188.76 57.2877 188.405 57.425C188.051 57.5623 187.727 57.7695 187.455 58.0341C187.182 58.2987 186.965 58.6155 186.817 58.9656C186.669 59.3157 186.592 59.6919 186.593 60.072Z" fill="#AFF1FF"/>
<path opacity="0.25" d="M183.052 23.3779C181.484 23.3779 180.214 22.1076 180.214 20.5406C180.214 18.9736 181.484 17.7034 183.052 17.7034C184.619 17.7034 185.889 18.9736 185.889 20.5406C185.889 22.1076 184.619 23.3779 183.052 23.3779Z" fill="#AFF1FF"/>
<path opacity="0.5" d="M69.0848 98.8994C69.0819 99.8719 69.3677 100.823 69.906 101.633C70.4443 102.443 71.2109 103.076 72.1088 103.45C73.0066 103.824 73.9953 103.923 74.9497 103.735C75.9041 103.547 76.7812 103.081 77.47 102.394C78.1589 101.707 78.6284 100.832 78.8193 99.8781C79.0101 98.9245 78.9136 97.9357 78.5421 97.0369C78.1705 96.1381 77.5405 95.3698 76.732 94.8292C75.9234 94.2886 74.9725 94 73.9998 94C73.3551 93.9981 72.7163 94.1234 72.12 94.3687C71.5238 94.6141 70.9819 94.9747 70.5253 95.4298C70.0687 95.885 69.7064 96.4257 69.4592 97.0211C69.2121 97.6165 69.0848 98.2548 69.0848 98.8994Z" fill="#AFF1FF"/>
<path opacity="0.5" d="M149.452 170.296C149.452 170.782 149.596 171.257 149.866 171.661C150.136 172.065 150.52 172.38 150.969 172.566C151.418 172.752 151.912 172.8 152.389 172.705C152.866 172.611 153.303 172.377 153.647 172.033C153.991 171.689 154.225 171.252 154.32 170.775C154.415 170.298 154.366 169.804 154.18 169.355C153.994 168.906 153.679 168.523 153.275 168.253C152.871 167.983 152.396 167.839 151.909 167.839C151.258 167.839 150.633 168.097 150.172 168.558C149.711 169.019 149.452 169.644 149.452 170.296Z" fill="#AFF1FF"/>
<path opacity="0.85" d="M174.466 157.557C174.466 158.043 174.61 158.518 174.88 158.922C175.15 159.326 175.534 159.641 175.983 159.827C176.432 160.013 176.926 160.062 177.403 159.967C177.879 159.872 178.317 159.638 178.661 159.295C179.005 158.951 179.239 158.513 179.333 158.037C179.428 157.56 179.38 157.066 179.194 156.617C179.008 156.168 178.693 155.784 178.288 155.514C177.884 155.244 177.409 155.1 176.923 155.1C176.271 155.1 175.646 155.359 175.185 155.82C174.725 156.281 174.466 156.906 174.466 157.557Z" fill="#AFF1FF"/>
<path opacity="0.85" d="M-0.00012207 201.457C-0.00012207 201.943 0.143977 202.418 0.414008 202.822C0.684038 203.226 1.06785 203.541 1.5169 203.727C1.96594 203.913 2.46007 203.962 2.93678 203.867C3.41348 203.772 3.85133 203.538 4.19501 203.194C4.5387 202.851 4.77274 202.413 4.86757 201.936C4.96239 201.46 4.91375 200.966 4.72775 200.517C4.54175 200.068 4.22675 199.684 3.82262 199.414C3.41849 199.144 2.94338 199 2.45734 199C1.80558 199 1.18048 199.259 0.719616 199.72C0.258751 200.18 -0.00012207 200.805 -0.00012207 201.457Z" fill="#AFF1FF"/>
<path opacity="0.2" d="M214.195 171.275C214.195 171.663 214.31 172.042 214.525 172.364C214.74 172.686 215.047 172.938 215.405 173.086C215.763 173.234 216.157 173.273 216.537 173.197C216.917 173.122 217.267 172.935 217.541 172.661C217.815 172.387 218.002 172.038 218.077 171.658C218.153 171.278 218.114 170.884 217.966 170.525C217.817 170.167 217.566 169.861 217.244 169.646C216.921 169.431 216.543 169.316 216.155 169.316C215.635 169.316 215.136 169.522 214.769 169.89C214.401 170.257 214.195 170.756 214.195 171.275Z" fill="#AFF1FF"/>
<path opacity="0.2" d="M4.99451 28.9597C4.99451 29.3473 5.10947 29.7262 5.32485 30.0485C5.54024 30.3708 5.84634 30.622 6.20451 30.7703C6.56268 30.9186 6.95682 30.9574 7.33706 30.8818C7.71729 30.8062 8.06655 30.6196 8.34068 30.3455C8.61481 30.0714 8.8015 29.7222 8.87713 29.3421C8.95277 28.9619 8.91394 28.5679 8.76558 28.2098C8.61722 27.8517 8.36598 27.5456 8.04364 27.3303C7.72129 27.1149 7.34234 27 6.95466 27C6.43479 27 5.93619 27.2065 5.56859 27.574C5.20099 27.9415 4.99451 28.44 4.99451 28.9597Z" fill="#AFF1FF"/>
<path opacity="0.2" d="M159.75 144.322C159.75 144.611 159.836 144.894 159.996 145.134C160.157 145.375 160.386 145.562 160.653 145.673C160.92 145.783 161.214 145.812 161.498 145.756C161.782 145.7 162.042 145.56 162.247 145.356C162.452 145.151 162.591 144.891 162.647 144.607C162.704 144.323 162.675 144.029 162.564 143.762C162.453 143.495 162.266 143.266 162.025 143.106C161.785 142.945 161.502 142.859 161.213 142.859C160.825 142.859 160.453 143.013 160.178 143.287C159.904 143.562 159.75 143.934 159.75 144.322Z" fill="#AFF1FF"/>
<path opacity="0.2" d="M168.088 156.577C168.088 156.867 168.174 157.15 168.334 157.39C168.495 157.631 168.724 157.818 168.991 157.929C169.258 158.039 169.552 158.068 169.836 158.012C170.12 157.955 170.38 157.816 170.585 157.612C170.79 157.407 170.929 157.147 170.985 156.863C171.042 156.579 171.013 156.285 170.902 156.018C170.791 155.751 170.604 155.522 170.363 155.361C170.123 155.201 169.84 155.115 169.551 155.115C169.163 155.115 168.791 155.269 168.516 155.543C168.242 155.818 168.088 156.19 168.088 156.577Z" fill="#AFF1FF"/>
<path opacity="0.2" d="M175.446 139.92C175.446 140.209 175.532 140.492 175.693 140.732C175.853 140.973 176.082 141.16 176.349 141.271C176.616 141.381 176.911 141.41 177.194 141.354C177.478 141.297 177.739 141.158 177.943 140.954C178.148 140.749 178.287 140.489 178.344 140.205C178.4 139.921 178.371 139.627 178.26 139.36C178.15 139.093 177.962 138.864 177.722 138.703C177.481 138.543 177.198 138.457 176.909 138.457C176.521 138.457 176.149 138.611 175.875 138.885C175.6 139.16 175.446 139.532 175.446 139.92Z" fill="#AFF1FF"/>
<path opacity="0.2" d="M238.712 160.248C238.712 160.537 238.798 160.82 238.958 161.061C239.119 161.301 239.348 161.489 239.615 161.599C239.882 161.71 240.176 161.739 240.46 161.683C240.744 161.626 241.004 161.487 241.209 161.282C241.414 161.078 241.553 160.817 241.609 160.533C241.666 160.25 241.637 159.956 241.526 159.688C241.415 159.421 241.228 159.193 240.987 159.032C240.747 158.871 240.464 158.786 240.175 158.786C239.787 158.786 239.415 158.94 239.14 159.214C238.866 159.488 238.712 159.86 238.712 160.248Z" fill="#AFF1FF"/>
<path opacity="0.2" d="M237 178.866C237 179.155 237.086 179.438 237.246 179.678C237.407 179.919 237.636 180.106 237.903 180.217C238.17 180.328 238.464 180.357 238.748 180.3C239.032 180.244 239.293 180.105 239.497 179.9C239.702 179.695 239.841 179.435 239.897 179.151C239.954 178.867 239.925 178.573 239.814 178.306C239.703 178.039 239.516 177.81 239.275 177.65C239.035 177.489 238.752 177.403 238.463 177.403C238.075 177.403 237.703 177.557 237.428 177.832C237.154 178.106 237 178.478 237 178.866Z" fill="#AFF1FF"/>
</svg>
