<svg width="40" height="40" viewBox="0 0 40 40" fill="none" xmlns="http://www.w3.org/2000/svg">
<ellipse rx="20" ry="20" transform="matrix(0 -1 -1 0 20 20)" fill="url(#paint0_radial_17298_3516)"/>
<path d="M32 13.0769C31.1375 13.4923 30.275 13.6308 29.2688 13.7692C30.275 13.2154 30.9938 12.3846 31.2812 11.2769C30.4187 11.8308 29.4125 12.1077 28.2625 12.3846C27.4 11.5538 26.1062 11 24.8125 11C21.7938 11 19.4938 13.7692 20.2125 16.5385C16.3313 16.4 12.8813 14.6 10.4375 11.8308C9.14375 13.9077 9.8625 16.5385 11.875 17.9231C11.1562 17.9231 10.4375 17.6462 9.71875 17.3692C9.71875 19.4462 11.3 21.3846 13.4563 21.9385C12.7375 22.0769 12.0188 22.2154 11.3 22.0769C11.875 23.8769 13.6 25.2615 15.7562 25.2615C14.0312 26.5077 11.4438 27.2 9 26.9231C11.1562 28.1692 13.6 29 16.1875 29C24.9563 29 29.8437 21.9385 29.5562 15.4308C30.5625 14.8769 31.425 14.0462 32 13.0769Z" fill="#09123C"/>
<defs>
<radialGradient id="paint0_radial_17298_3516" cx="0" cy="0" r="1" gradientUnits="userSpaceOnUse" gradientTransform="translate(28.6352 29.3155) rotate(-127.803) scale(33.4206 33.8242)">
<stop stop-color="white"/>
<stop offset="1" stop-color="white"/>
</radialGradient>
</defs>
</svg>
