<svg width="142" height="142" viewBox="0 0 142 142" fill="none" xmlns="http://www.w3.org/2000/svg">
<path d="M43.9312 54.1375C43.9312 53.25 43.4875 52.3625 43.0437 51.9187L36.3875 43.9312V42.6H56.8L72.775 77.6562L86.975 42.6H106.5V43.9312L100.731 49.2562C100.288 49.7 99.8438 50.1437 100.288 51.0312V90.9687C100.288 91.4125 100.288 92.3 100.731 92.7437L106.056 98.0687V99.4H78.1V98.0687L83.8687 92.3C84.3125 91.8562 84.3125 91.4125 84.3125 90.525V58.1312L68.3375 98.5125H66.5625L47.925 58.1312V85.2C47.925 86.5312 48.3688 87.4187 48.8125 88.3062L56.3562 97.1812V98.5125H35.5V97.1812L43.0437 88.3062C43.9312 87.4187 44.375 86.5312 43.9312 85.2V54.1375Z" fill="#08103F"/>
</svg>
