<svg width="690" height="688" viewBox="0 0 690 688" fill="none" xmlns="http://www.w3.org/2000/svg">
<path d="M497.239 86.231C475.548 64.6398 446.139 52.4916 415.46 52.4511C388.268 52.4115 361.947 61.9879 341.192 79.4715H272.515C287.567 55.1907 308.607 35.1432 333.637 21.2337C358.666 7.3242 386.854 0.0148087 415.522 0C460.136 0.0647202 502.902 17.7349 534.444 49.1352C565.985 80.5356 583.725 123.103 583.774 167.502V308.472C583.774 309.931 583.72 311.406 583.666 312.872V312.874C583.613 314.325 583.56 315.769 583.56 317.183C583.039 327.15 581.631 337.052 579.352 346.771C572.708 374.637 559.021 400.351 539.589 421.476C520.158 442.6 495.626 458.434 468.319 467.476C459.684 470.357 450.816 472.495 441.813 473.864C433.121 475.271 424.328 475.967 415.522 475.943C406.717 475.96 397.925 475.275 389.23 473.895C380.23 472.497 371.363 470.35 362.724 467.476C358.424 466.07 354.184 464.481 350.038 462.708C336.554 457.034 323.882 449.614 312.351 440.639C304.732 434.762 297.641 428.237 291.158 421.138C282.025 411.2 274.136 400.198 267.662 388.371C267.632 388.313 267.599 388.257 267.561 388.204C267.535 388.167 267.507 388.131 267.478 388.096C262.934 379.732 259.113 371 256.053 361.993C250.539 345.836 247.574 328.925 247.267 311.865V294.534C253.652 292.545 260.25 291.314 266.924 290.866C269.104 290.591 271.286 290.591 273.527 290.591H273.529C282.444 290.566 291.31 291.896 299.821 294.534V308.564C299.811 315.742 300.479 322.906 301.817 329.96C303.682 339.815 306.842 349.382 311.216 358.417C311.799 359.639 312.382 360.831 313.089 362.023C317.751 370.886 323.554 379.106 330.351 386.476C339.631 396.451 350.598 404.728 362.754 410.929C371.065 415.21 379.875 418.454 388.984 420.588C389.074 420.618 389.17 420.618 389.26 420.588C397.875 422.615 406.698 423.641 415.552 423.644C421.496 423.653 427.433 423.193 433.305 422.269C436.162 421.871 439.048 421.26 441.843 420.588C451.05 418.471 459.955 415.216 468.349 410.898C484.577 402.58 498.6 390.564 509.275 375.829C519.951 361.095 526.975 344.058 529.778 326.108C530.707 320.275 531.17 314.378 531.161 308.472V167.624C531.128 137.093 518.929 107.822 497.239 86.231Z" fill="url(#paint0_radial_16584_3982)" fill-opacity="0.3"/>
<path d="M192.507 601.931C214.19 623.514 243.588 635.662 274.256 635.711C301.512 635.685 327.87 626.009 348.615 608.415H417.294C402.226 632.695 381.174 652.74 356.135 666.649C331.096 680.557 302.901 687.868 274.226 687.887C229.617 687.838 186.85 670.182 155.307 638.791C123.764 607.4 106.021 564.839 105.972 520.446V379.445C105.972 376.511 106.064 373.577 106.218 370.703C106.719 360.724 108.128 350.811 110.426 341.085C117.071 313.228 130.755 287.523 150.181 266.404C169.606 245.285 194.131 229.454 221.428 220.41C230.081 217.547 238.956 215.401 247.964 213.992C256.65 212.626 265.432 211.941 274.226 211.944C283.03 211.94 291.821 212.625 300.518 213.992C309.516 215.401 318.381 217.548 327.024 220.41C331.385 221.816 335.563 223.406 339.74 225.179C353.215 230.831 365.869 238.254 377.365 247.247C385.01 253.115 392.122 259.641 398.619 266.748C407.726 276.707 415.613 287.707 422.115 299.515C422.16 299.626 422.222 299.729 422.3 299.821C426.798 308.196 430.618 316.915 433.725 325.894C439.183 342.053 442.135 358.947 442.479 375.991V393.444C436.095 395.441 429.497 396.682 422.822 397.143C420.611 397.418 418.431 397.418 416.19 397.418H416.187C407.271 397.43 398.405 396.09 389.895 393.444V379.445C389.907 372.267 389.239 365.103 387.899 358.049C386.049 348.184 382.9 338.606 378.532 329.562C377.948 328.37 377.334 327.147 376.659 325.985C372.002 317.089 366.153 308.863 359.274 301.532C350.065 291.518 339.12 283.235 326.962 277.08C318.66 272.81 309.86 269.577 300.762 267.451C300.714 267.429 300.662 267.418 300.609 267.418C300.556 267.418 300.504 267.429 300.456 267.451C291.841 265.421 283.018 264.395 274.164 264.395C268.21 264.379 262.264 264.829 256.381 265.74C253.524 266.198 250.667 266.748 247.903 267.421C238.683 269.527 229.768 272.782 221.367 277.11C205.144 285.434 191.124 297.452 180.45 312.186C169.775 326.92 162.748 343.953 159.938 361.9C159.035 367.746 158.583 373.653 158.587 379.568V520.569C158.627 551.089 170.825 580.347 192.507 601.931Z" fill="url(#paint1_radial_16584_3982)" fill-opacity="0.3"/>
<path d="M167.592 158.504H308.624C314.529 158.501 320.425 158.952 326.261 159.852C344.208 162.655 361.241 169.664 375.975 180.31C390.709 190.955 402.727 204.936 411.051 221.115C415.379 229.493 418.634 238.385 420.741 247.58C421.413 250.337 421.963 253.186 422.421 256.034C433.51 269.388 442.762 284.172 449.931 299.99C453.809 308.553 457.058 317.388 459.651 326.425C460.843 330.621 461.882 334.818 462.708 339.106C464.48 334.941 466.07 330.744 467.476 326.425C470.353 317.81 472.499 308.967 473.894 299.99C475.275 291.319 475.962 282.551 475.943 273.77C475.96 264.999 475.274 256.241 473.894 247.58C472.499 238.593 470.353 229.74 467.476 221.115C458.433 193.892 442.601 169.434 421.482 150.061C400.364 130.688 374.658 117.041 346.802 110.413C337.089 108.157 327.198 106.753 317.243 106.217C315.699 106.217 314.226 106.154 312.768 106.092C311.339 106.032 309.924 105.972 308.472 105.972H167.44C123.049 106.028 80.493 123.725 49.1041 155.181C17.7152 186.637 0.0566156 229.284 0 273.77C0.0189135 302.368 7.32938 330.486 21.238 355.457C35.1466 380.428 55.192 401.423 79.4716 416.45V347.99C61.9539 327.285 52.3641 301.007 52.4204 273.862C52.4608 243.269 64.6091 213.942 86.2012 192.315C107.793 170.688 137.064 158.529 167.592 158.504Z" fill="url(#paint2_radial_16584_3982)" fill-opacity="0.3"/>
<path d="M609.958 341.798V273.296C634.349 288.332 654.483 309.338 668.447 334.318C682.411 359.298 689.743 387.424 689.746 416.026C689.689 460.503 671.948 503.142 640.416 534.59C608.884 566.038 566.134 583.726 521.545 583.774H380.176C378.714 583.774 377.236 583.72 375.762 583.667C374.296 583.613 372.834 583.56 371.395 583.56C361.374 583.046 351.419 581.642 341.648 579.365C313.666 572.736 287.846 559.089 266.636 539.715C245.425 520.342 229.526 495.886 220.447 468.665C217.564 460.055 215.427 451.214 214.062 442.238C212.639 433.573 211.931 424.806 211.944 416.026C211.941 407.248 212.629 398.484 214 389.813C215.419 380.843 217.576 372.004 220.447 363.386C221.86 359.017 223.456 354.792 225.237 350.709C226.004 354.996 227.048 359.252 228.307 363.386C230.872 372.425 234.115 381.259 238.008 389.813C245.212 405.605 254.505 420.364 265.637 433.695C266.067 436.573 266.65 439.452 267.325 442.238C269.464 451.414 272.733 460.29 277.056 468.665C285.413 484.842 297.482 498.821 312.281 509.464C327.08 520.107 344.19 527.113 362.217 529.91C368.086 530.836 374.018 531.296 379.96 531.288H521.545C552.195 531.231 581.574 519.059 603.244 497.437C624.914 475.815 637.11 446.507 637.159 415.934C637.192 388.786 627.551 362.51 609.958 341.798Z" fill="url(#paint3_radial_16584_3982)" fill-opacity="0.3"/>
<defs>
<radialGradient id="paint0_radial_16584_3982" cx="0" cy="0" r="1" gradientUnits="userSpaceOnUse" gradientTransform="translate(255 254) rotate(57.4421) scale(1038.74 1598.54)">
<stop stop-color="white"/>
<stop offset="0.442708" stop-color="white" stop-opacity="0"/>
</radialGradient>
<radialGradient id="paint1_radial_16584_3982" cx="0" cy="0" r="1" gradientUnits="userSpaceOnUse" gradientTransform="translate(255 254) rotate(57.4421) scale(1038.74 1598.54)">
<stop stop-color="white"/>
<stop offset="0.442708" stop-color="white" stop-opacity="0"/>
</radialGradient>
<radialGradient id="paint2_radial_16584_3982" cx="0" cy="0" r="1" gradientUnits="userSpaceOnUse" gradientTransform="translate(255 254) rotate(57.4421) scale(1038.74 1598.54)">
<stop stop-color="white"/>
<stop offset="0.442708" stop-color="white" stop-opacity="0"/>
</radialGradient>
<radialGradient id="paint3_radial_16584_3982" cx="0" cy="0" r="1" gradientUnits="userSpaceOnUse" gradientTransform="translate(255 254) rotate(57.4421) scale(1038.74 1598.54)">
<stop stop-color="white"/>
<stop offset="0.442708" stop-color="white" stop-opacity="0"/>
</radialGradient>
</defs>
</svg>
